:FULLY-SPECIFIED
:DEGREES
1
root 7.53438 15.9688 -35.4422 7.08281 -1.62989 -4.21641
lfemur -40.7057 2.60221 -12.4471
ltibia 25.712
lfoot -13.9058 9.63845
ltoes -12.6758
rfemur -1.14606 6.23535 30.508
rtibia 17.2542
rfoot -20.6999 -2.62785
rtoes -9.71777
lowerback -5.62718 0.582034 1.0796
upperback -1.36029 0.660099 2.58083
thorax 1.73639 0.331424 2.09519
lowerneck -19.6104 -4.93883 -11.4559
upperneck 15.4556 -6.56334 15.0368
head 8.99361 -2.25598 6.21897
lclavicle -6.47914e-15 3.8763e-14
lhumerus -38.0534 -6.28496 88.5461
lradius 28.8553
lwrist 7.25088
lhand -9.88555 -23.8687
lfingers 7.12502
lthumb 16.0939 5.48295
rclavicle -6.47914e-15 3.8763e-14
rhumerus -39.6602 18.555 -86.3954
rradius 60.8777
rwrist -34.8856
rhand -30.4186 -28.8941
rfingers 7.12502
rthumb -3.72174 -58.8413
2
root 7.54757 15.9604 -35.3096 7.01143 -2.00671 -4.20342
lfemur -40.6913 2.21025 -12.0403
ltibia 24.5045
lfoot -14.2241 10.3262
ltoes -13.4372
rfemur 0.0531284 6.20524 30.4397
rtibia 16.0686
rfoot -20.5541 -2.46636
rtoes -9.31277
lowerback -5.60272 0.662971 1.00996
upperback -1.34649 0.771555 2.60958
thorax 1.73244 0.386773 2.17159
lowerneck -19.5111 -4.9088 -11.0306
upperneck 15.3459 -6.53034 14.512
head 8.89615 -2.27141 5.95491
lclavicle -1.14363e-14 1.23246e-14
lhumerus -38.6915 -6.85484 88.9843
lradius 29.5307
lwrist 7.41265
lhand -9.37984 -22.9609
lfingers 7.12502
lthumb 16.5808 6.3508
rclavicle -1.14363e-14 1.23246e-14
rhumerus -39.8872 18.6623 -86.6247
rradius 61.1985
rwrist -34.9593
rhand -30.7928 -29.5903
rfingers 7.12502
rthumb -4.08301 -59.5309
3
root 7.56315 15.9579 -35.1723 6.84858 -2.39617 -4.2983
lfemur -40.4795 1.68275 -11.4262
ltibia 23.2495
lfoot -14.1984 11.2654
ltoes -14.5861
rfemur 1.27218 6.09063 30.4769
rtibia 15.0914
rfoot -20.5947 -2.0358
rtoes -7.09517
lowerback -5.74498 0.744119 1.10888
upperback -1.14889 0.863023 2.65896
thorax 2.01316 0.431755 2.17813
lowerneck -19.7744 -4.96781 -11.6088
upperneck 15.6149 -6.61056 15.2626
head 9.09992 -2.25673 6.32721
lclavicle -2.27981e-15 -7.7526e-15
lhumerus -38.8621 -6.84281 89.0828
lradius 29.788
lwrist 7.05916
lhand -8.08615 -22.32
lfingers 7.12502
lthumb 17.8259 6.88297
rclavicle -2.27981e-15 -7.7526e-15
rhumerus -39.9341 18.8228 -86.8257
rradius 61.5251
rwrist -34.9674
rhand -31.2044 -29.7027
rfingers 7.12502
rthumb -4.48048 -59.6353
4
root 7.57534 15.9507 -35.0329 6.85385 -2.74873 -4.46139
lfemur -40.3243 0.736868 -10.4405
ltibia 21.977
lfoot -14.0634 12.5327
ltoes -14.5659
rfemur 2.25542 5.83265 30.5499
rtibia 14.221
rfoot -20.5133 -1.64553
rtoes -6.11871
lowerback -5.88466 0.891127 1.27979
upperback -1.18252 1.04332 2.73942
thorax 2.05275 0.522493 2.18083
lowerneck -19.2731 -5.04674 -12.0807
upperneck 15.1923 -6.56466 15.1694
head 8.87024 -2.2989 6.36705
lclavicle -3.41661e-16 1.19271e-15
lhumerus -39.1399 -7.12577 89.4033
lradius 29.6957
lwrist 6.89171
lhand -7.5163 -22.6413
lfingers 7.12502
lthumb 18.3742 6.51087
rclavicle -3.41661e-16 1.19271e-15
rhumerus -40.3562 18.7617 -87.015
rradius 61.8554
rwrist -34.9246
rhand -31.1765 -29.0283
rfingers 7.12502
rthumb -4.45358 -58.9615
5
root 7.58585 15.9297 -34.897 6.95551 -3.10578 -4.81296
lfemur -40.3008 -0.0502415 -9.29452
ltibia 20.8056
lfoot -14.0521 13.7562
ltoes -14.8047
rfemur 3.10987 5.80735 30.8493
rtibia 13.3995
rfoot -20.2215 -1.5305
rtoes -5.62649
lowerback -5.87249 1.05203 1.54116
upperback -1.37564 1.24449 2.90144
thorax 1.84332 0.624356 2.21328
lowerneck -19.0051 -5.08432 -12.3011
upperneck 15.2385 -6.56594 15.0659
head 8.83999 -2.33309 6.36868
lclavicle -1.82696e-14 8.74653e-15
lhumerus -39.5485 -7.75313 89.9461
lradius 29.4002
lwrist 7.18896
lhand -7.1769 -22.5665
lfingers 7.12502
lthumb 18.7007 6.55462
rclavicle -1.82696e-14 8.74653e-15
rhumerus -40.9094 18.6564 -87.1574
rradius 62.0974
rwrist -34.7946
rhand -31.1885 -30.3298
rfingers 7.12502
rthumb -4.46515 -60.2627
